<?xml version="1.0" encoding="UTF-8" standalone="no"?>
<!-- Created with Inkscape (http://www.inkscape.org/) -->

<svg
   xmlns:dc="http://purl.org/dc/elements/1.1/"
   xmlns:cc="http://creativecommons.org/ns#"
   xmlns:rdf="http://www.w3.org/1999/02/22-rdf-syntax-ns#"
   xmlns:svg="http://www.w3.org/2000/svg"
   xmlns="http://www.w3.org/2000/svg"
   xmlns:sodipodi="http://sodipodi.sourceforge.net/DTD/sodipodi-0.dtd"
   xmlns:inkscape="http://www.inkscape.org/namespaces/inkscape"
   version="1.1"
   id="svg853"
   xml:space="preserve"
   width="528"
   height="528"
   viewBox="0 0 528 528"
   sodipodi:docname="p-active-logo.svg"
   inkscape:version="0.92.2 2405546, 2018-03-11"><metadata
     id="metadata859"><rdf:RDF><cc:Work
         rdf:about=""><dc:format>image/svg+xml</dc:format><dc:type
           rdf:resource="http://purl.org/dc/dcmitype/StillImage" /><dc:title></dc:title></cc:Work></rdf:RDF></metadata><defs
     id="defs857"><clipPath
       clipPathUnits="userSpaceOnUse"
       id="clipPath871"><path
         d="M 0,396 H 396 V 0 H 0 Z"
         id="path869"
         inkscape:connector-curvature="0" /></clipPath></defs><sodipodi:namedview
     pagecolor="#ffffff"
     bordercolor="#666666"
     borderopacity="1"
     objecttolerance="10"
     gridtolerance="10"
     guidetolerance="10"
     inkscape:pageopacity="0"
     inkscape:pageshadow="2"
     inkscape:window-width="1920"
     inkscape:window-height="1080"
     id="namedview855"
     showgrid="false"
     inkscape:zoom="0.5"
     inkscape:cx="330.44753"
     inkscape:cy="436.53386"
     inkscape:window-x="0"
     inkscape:window-y="0"
     inkscape:window-maximized="0"
     inkscape:current-layer="g861" /><g
     id="g861"
     inkscape:groupmode="layer"
     inkscape:label="P-Active Logo"
     transform="matrix(1.3333333,0,0,-1.3333333,0,528)"><path
       d="M 0,0 H 396 V 396 H 0 Z"
       style="fill:#ef3958;fill-opacity:1;fill-rule:nonzero;stroke:none"
       id="path863"
       inkscape:connector-curvature="0" /><g
       id="g865"><g
         id="g867"
         clip-path="url(#clipPath871)"><g
           id="g873"
           transform="translate(18.5039,114.1367)"><path
             d="m 0,0 c 0,-47.913 38.842,-86.756 86.755,-86.756 h 185.481 c 47.914,0 86.756,38.843 86.756,86.756 v 167.727 c 0,47.914 -38.842,86.755 -86.756,86.755 H 86.755 C 38.842,254.482 0,215.641 0,167.727 Z"
             style="fill:#ef3958;fill-opacity:1;fill-rule:nonzero;stroke:none"
             id="path875"
             inkscape:connector-curvature="0" /></g><g
           id="g877"
           transform="translate(183.0537,181.7617)"><path
             d="M 0,0 H 32.217 C 47.409,0 59.197,11.139 59.458,24.696 59.197,38.74 47.409,49.879 32.217,49.879 H 0 Z M 32.217,-26.874 H 0 v -52.542 c 0,-7.264 -6.546,-13.315 -14.669,-13.315 -7.855,0 -14.405,6.051 -14.405,13.315 V 63.438 c 0,7.503 6.55,13.314 14.405,13.314 h 0.263 46.623 c 31.172,0 56.317,-23.242 56.317,-52.056 0,-28.328 -25.145,-51.57 -56.317,-51.57"
             style="fill:#ffffff;fill-opacity:1;fill-rule:nonzero;stroke:none"
             id="path879"
             inkscape:connector-curvature="0" /></g><g
           id="g881"
           transform="translate(171.1836,350.5034)"><path
             d="m 0,0 36.353,-73.214 c 19.34,7.545 34.416,8.736 39.197,1.739 8.009,-11.72 -15.868,-41.974 -53.335,-67.572 -37.462,-25.597 -74.324,-36.842 -82.336,-25.12 -4.768,6.978 1.773,20.534 15.756,35.759 l -55.468,55.538 c -2.057,3.011 -1.65,6.974 0.773,9.515 4.603,8.099 21.41,23.134 43.101,37.955 C -28.355,-6.542 -3.301,4.829 0,0"
             style="fill:#d21142;fill-opacity:1;fill-rule:nonzero;stroke:none"
             id="path883"
             inkscape:connector-curvature="0" /></g><g
           id="g885"
           transform="translate(190.2354,246.7744)"><path
             d="m 0,0 c -9.616,-6.852 -19.368,-13.515 -29.243,-19.991 -19.066,22.279 -37.846,44.775 -56.332,67.481 14.572,9.3 28.85,19.053 42.806,29.249 C -28.222,51.345 -13.965,25.761 0,0"
             style="fill:#ffffff;fill-opacity:1;fill-rule:nonzero;stroke:none"
             id="path887"
             inkscape:connector-curvature="0" /></g><g
           id="g889"
           transform="translate(217.9199,258.3926)"><path
             d="m 0,0 c -20.268,-23.854 -46.45,-41.954 -75.892,-52.505 -8.423,7.606 -16.094,15.738 -22.96,24.29 33.505,8.69 62.926,28.791 83.201,56.845 C -9.834,19.599 -4.598,10.037 0,0"
             style="fill:#002d62;fill-opacity:1;fill-rule:nonzero;stroke:none"
             id="path891"
             inkscape:connector-curvature="0" /></g><g
           id="g893"
           transform="translate(166.2393,250.0898)"><path
             d="m 0,0 8.308,-4.682 8.563,4.191 -1.881,-9.345 6.628,-6.849 -9.469,-1.095 -4.465,-8.428 -3.97,8.67 -9.39,1.644 7.015,6.451 z"
             style="fill:#ffffff;fill-opacity:1;fill-rule:nonzero;stroke:none"
             id="path895"
             inkscape:connector-curvature="0" /></g></g></g></g></svg>